<svg aria-hidden="true" style="position: absolute; width: 0; height: 0; overflow: hidden;"
    version="1.1" xmlns="http://www.w3.org/2000/svg" xmlns:xlink="http://www.w3.org/1999/xlink">
    <defs>
        <symbol id="icon-facebook" viewBox="0 0 32 32">
            <path
                d="M28.348 15.717c0-7.127-5.769-12.91-12.878-12.91s-12.878 5.784-12.878 12.91c0 6.249 4.43 11.451 10.302 12.652v-8.779h-2.576v-3.873h2.576v-3.228c0-2.492 2.022-4.519 4.507-4.519h3.22v3.873h-2.576c-0.708 0-1.288 0.581-1.288 1.291v2.582h3.863v3.873h-3.863v8.973c6.503-0.646 11.59-6.145 11.59-12.846z"></path>
        </symbol>
        <symbol id="icon-telegram" viewBox="0 0 32 32">
            <path
                d="M15.378 2.681c-7.109 0-12.878 5.769-12.878 12.878s5.769 12.878 12.878 12.878c7.109 0 12.878-5.769 12.878-12.878s-5.769-12.878-12.878-12.878zM21.353 11.438c-0.193 2.035-1.030 6.98-1.455 9.259-0.18 0.966-0.541 1.288-0.876 1.326-0.747 0.064-1.314-0.489-2.035-0.966-1.133-0.747-1.777-1.211-2.872-1.932-1.275-0.837-0.451-1.301 0.283-2.048 0.193-0.193 3.49-3.194 3.554-3.464 0.009-0.041 0.008-0.083-0.003-0.124s-0.032-0.077-0.061-0.108c-0.077-0.064-0.18-0.039-0.27-0.026-0.116 0.026-1.919 1.223-5.435 3.593-0.515 0.348-0.979 0.528-1.391 0.515-0.464-0.013-1.339-0.258-1.996-0.477-0.811-0.258-1.442-0.399-1.391-0.85 0.026-0.232 0.348-0.464 0.953-0.708 3.76-1.636 6.259-2.717 7.508-3.232 3.58-1.494 4.314-1.751 4.804-1.751 0.103 0 0.348 0.026 0.502 0.155 0.129 0.103 0.167 0.245 0.18 0.348-0.013 0.077 0.013 0.309 0 0.489z"></path>
        </symbol>
        <symbol id="icon-administration" viewBox="0 0 32 32">
            <path
                d="M28.137 9.646c0 0.96-0.389 1.886-1.074 2.571s-1.611 1.074-2.571 1.074c-0.971 0-1.897-0.389-2.583-1.074s-1.063-1.611-1.063-2.571c0-0.971 0.377-1.897 1.063-2.583s1.611-1.063 2.583-1.063c0.96 0 1.886 0.377 2.571 1.063s1.074 1.611 1.074 2.583zM1.646 2.446v6.606h-0.994c-0.046 0-0.091-0.011-0.126-0.023-0.046-0.011-0.080-0.046-0.114-0.069-0.034-0.034-0.057-0.069-0.069-0.114-0.023-0.046-0.034-0.091-0.034-0.126v-8.537c0-0.286 0.217-0.526 0.514-0.526h4.377c0.297 0 0.514 0.24 0.514 0.526v0.503h6.754c0.194 0 0.343 0.149 0.343 0.331v1.92h-5.771v-0.503c0-0.286-0.217-0.526-0.514-0.526h-4.366c-0.297 0-0.514 0.24-0.514 0.537z"></path>
            <path
                d="M15.474 13.063c0 0.046-0.011 0.080-0.034 0.126-0.011 0.046-0.034 0.080-0.069 0.114-0.034 0.023-0.069 0.057-0.114 0.069-0.034 0.023-0.080 0.023-0.126 0.023h-11.817c-0.046 0-0.091 0-0.137-0.023-0.034-0.011-0.069-0.046-0.103-0.069-0.034-0.034-0.057-0.069-0.080-0.114-0.011-0.046-0.023-0.080-0.023-0.126v-8.537c0-0.286 0.217-0.526 0.514-0.526h4.366c0.297 0 0.514 0.24 0.514 0.526v0.503h6.766c0.183 0 0.343 0.149 0.343 0.331v7.703zM10.229 8.206v-2.023h-2.011v2.023h-2.023v2.011h2.023v2.011h2.011v-2.011h2.011v-2.011h-2.011zM28.091 14.229c0.48 0 0.96 0.091 1.394 0.274 0.446 0.183 0.857 0.457 1.189 0.8 0.343 0.331 0.617 0.743 0.8 1.177 0.183 0.446 0.274 0.926 0.274 1.406l0.011 13.36h-12.274v-11.074h-0.503l-2.263 3.371c-0.366 0.503-1.109 0.743-1.703 0.743h-5.314c-0.423 0-0.834-0.16-1.131-0.457-0.297-0.309-0.469-0.709-0.469-1.131 0-0.88 0.709-1.577 1.6-1.577h4.834l3.349-5.063c0.8-1.234 2.377-1.829 3.634-1.829h6.571z"></path>
        </symbol>
        <symbol id="icon-arrow-link" viewBox="0 0 27 32">
            <path
                d="M20.048 19.024l0.368-10.928-0.736-0.752-10.944 0.368-0.048 1.552 9.072-0.32-11.824 11.824 1.072 1.056 11.808-11.824-0.32 9.072 1.552-0.048z"></path>
        </symbol>
        <symbol id="icon-arrow-select" viewBox="0 0 32 32">
            <path
                d="M3.413 4.213h24.16c0.24 0 0.48 0.053 0.693 0.187s0.4 0.32 0.507 0.533c0.107 0.213 0.16 0.453 0.133 0.693 0 0.24-0.080 0.48-0.213 0.693l-12.080 17.44c-0.507 0.72-1.707 0.72-2.213 0l-12.080-17.44c-0.133-0.213-0.213-0.453-0.24-0.693 0-0.24 0.053-0.48 0.16-0.693s0.267-0.4 0.48-0.533c0.213-0.133 0.453-0.187 0.693-0.187z"></path>
        </symbol>
        <symbol id="icon-attention" viewBox="0 0 32 32">
            <path fill="none" stroke="#edfaf6" style="stroke: var(--color1, #edfaf6)"
                stroke-linejoin="round" stroke-linecap="butt" stroke-miterlimit="4"
                stroke-width="2.8571"
                d="M21.097 27.623c1.623-0.663 3.086-1.646 4.32-2.891 1.246-1.234 2.229-2.697 2.891-4.32 0.674-1.623 1.017-3.349 1.017-5.109 0-1.749-0.343-3.486-1.017-5.097-0.663-1.623-1.646-3.086-2.891-4.32-1.234-1.246-2.697-2.229-4.32-2.903-1.623-0.663-3.349-1.006-5.109-1.006-1.749 0-3.486 0.343-5.097 1.006-1.623 0.674-3.086 1.657-4.32 2.903-1.246 1.234-2.229 2.697-2.903 4.32-0.663 1.611-1.006 3.349-1.006 5.097 0 1.76 0.343 3.486 1.006 5.109 0.674 1.623 1.657 3.086 2.903 4.32 1.234 1.246 2.697 2.229 4.32 2.891 1.611 0.674 3.349 1.017 5.097 1.017 1.76 0 3.486-0.343 5.109-1.017z"></path>
            <path fill="#edfaf6" style="fill: var(--color1, #edfaf6)"
                d="M15.989 23.977c0.446 0 0.869-0.183 1.177-0.491 0.32-0.309 0.491-0.731 0.491-1.177s-0.171-0.869-0.491-1.177c-0.309-0.32-0.731-0.491-1.177-0.491-0.434 0-0.857 0.171-1.177 0.491-0.309 0.309-0.491 0.731-0.491 1.177s0.183 0.869 0.491 1.177c0.32 0.309 0.743 0.491 1.177 0.491z"></path>
            <path fill="none" stroke="#edfaf6" style="stroke: var(--color1, #edfaf6)"
                stroke-linejoin="round" stroke-linecap="round" stroke-miterlimit="4"
                stroke-width="2.8571" d="M16 7.314v10.663"></path>
        </symbol>
        <symbol id="icon-burger" viewBox="0 0 31 32">
            <path stroke-linejoin="round" stroke-linecap="butt" stroke-miterlimit="4"
                stroke-width="2.4779"
                d="M3.569 7.828h23.541M3.569 15.672h23.541M3.569 23.516h23.541"></path>
        </symbol>
        <symbol id="icon-close" viewBox="0 0 32 32">
            <path
                d="M6.938 6.938c0.247-0.247 0.582-0.385 0.931-0.385 0.342 0 0.676 0.138 0.924 0.385l6.945 6.945 6.938-6.945c0.124-0.124 0.269-0.225 0.429-0.291 0.16-0.073 0.335-0.109 0.502-0.109 0.175 0 0.349 0.029 0.509 0.095 0.167 0.065 0.313 0.167 0.429 0.291 0.124 0.124 0.225 0.269 0.291 0.429s0.102 0.335 0.095 0.509c0 0.175-0.036 0.342-0.102 0.502-0.073 0.167-0.167 0.305-0.298 0.429l-6.938 6.945 6.938 6.938c0.24 0.247 0.371 0.582 0.371 0.924s-0.138 0.676-0.385 0.916c-0.24 0.247-0.575 0.385-0.916 0.385s-0.676-0.131-0.924-0.371l-6.938-6.938-6.945 6.938c-0.247 0.24-0.575 0.371-0.924 0.371-0.342 0-0.669-0.138-0.916-0.385-0.24-0.24-0.378-0.575-0.385-0.916 0-0.342 0.131-0.676 0.371-0.924l6.945-6.938-6.945-6.945c-0.247-0.247-0.385-0.582-0.385-0.924 0-0.349 0.138-0.684 0.385-0.931z"></path>
        </symbol>
        <symbol id="icon-document" viewBox="0 0 32 32">
            <path
                d="M2.752 32c-0.976 0-1.824-0.352-2.512-1.056-0.704-0.688-1.040-1.536-1.040-2.512v-24.88c0-0.976 0.336-1.824 1.040-2.512 0.688-0.704 1.536-1.040 2.512-1.040h19.552l8.896 8.88v19.552c0 0.976-0.352 1.824-1.056 2.512-0.688 0.704-1.536 1.056-2.512 1.056h-24.88zM6.304 24.88h17.776v-3.552h-17.776v3.552zM6.304 17.776h17.776v-3.568h-17.776v3.568zM20.528 10.656h7.104l-7.104-7.104v7.104zM6.304 10.656h8.896v-3.552h-8.896v3.552z"></path>
        </symbol>
        <symbol id="icon-event" viewBox="0 0 32 32">
            <path
                d="M28 5.314c0-0.537-0.217-1.040-0.594-1.417-0.366-0.377-0.88-0.583-1.406-0.583h-4v-2h-2v2h-8v-2h-2v2h-4c-0.537 0-1.051 0.206-1.417 0.583-0.377 0.377-0.583 0.88-0.583 1.417v20c0 0.526 0.206 1.040 0.583 1.406 0.366 0.377 0.88 0.594 1.417 0.594h4v-2h-4v-20h4v2h2v-2h8v2h2v-2h4v6h2v-6z"></path>
            <path
                d="M20.994 14.309l2.549 4.937 5.451 0.789-4 3.851 1.006 5.429-5.006-2.571-4.994 2.571 0.994-5.429-4-3.851 5.6-0.789 2.4-4.937z"></path>
        </symbol>
        <symbol id="icon-gateway" viewBox="0 0 32 32">
            <path fill="none" stroke="#014631" style="stroke: var(--color2, #014631)"
                stroke-linejoin="round" stroke-linecap="butt" stroke-miterlimit="4"
                stroke-width="2.4"
                d="M2.928 14.096c-0.24 0.24-0.384 0.576-0.384 0.944 0 0.352 0.144 0.688 0.384 0.944l12.256 12.256c0.128 0.112 0.272 0.208 0.432 0.288 0.176 0.064 0.336 0.096 0.512 0.096s0.352-0.032 0.512-0.096c0.16-0.080 0.304-0.176 0.432-0.288l12.256-12.256c0.256-0.256 0.4-0.592 0.4-0.944 0-0.368-0.144-0.704-0.4-0.944l-12.256-12.256c-0.128-0.128-0.272-0.224-0.432-0.304-0.16-0.064-0.336-0.096-0.512-0.096s-0.352 0.032-0.512 0.096c-0.16 0.080-0.304 0.176-0.432 0.304v0l-12.256 12.256z"></path>
            <path fill="none" stroke="#014631" style="stroke: var(--color2, #014631)"
                stroke-linejoin="miter" stroke-linecap="butt" stroke-miterlimit="4"
                stroke-width="2.4" d="M16.016 9.392v11.296M10.368 15.040h11.296"></path>
        </symbol>
        <symbol id="icon-goit" viewBox="0 0 103 32">
            <path fill="#fff" style="fill: var(--color3, #fff)"
                d="M101.6-0.142v32h-45.369v-32h45.369zM70.56 8.658v13.938c0 0.018 0 0.018 0 0.036 0 0.036 0 0.053 0 0.089 0 0.089 0.018 0.124 0.107 0.107 0.018 0 0.036 0 0.071 0v0c0.018 0 0.018 0 0.018 0 0.391 0 0.764 0 1.138 0.018v0c0.747 0 1.511 0 2.258-0.018 0.018 0 0.036 0.018 0.071 0.018 0.053 0 0.089 0 0.107-0.018s0.018-0.053 0.018-0.124c0-0.018 0-0.036 0-0.071v-13.956c0 0 0-0.018 0-0.018 0-0.036 0-0.053 0-0.071 0.018-0.089-0.018-0.124-0.107-0.124-0.018 0-0.036 0-0.053 0 0 0-0.018 0-0.018 0-0.391 0-0.764 0-1.138 0-0.764 0-1.529 0-2.276 0-0.036 0-0.053 0-0.071 0-0.053 0-0.089 0-0.107 0.018s-0.018 0.053-0.018 0.124c0 0.018 0 0.036 0 0.053zM89.404 8.462h-5.636c-1.884 0-3.769 0-5.636 0-0.018 0-0.036 0-0.053 0s-0.053 0-0.089 0c-0.053 0-0.071 0.036-0.071 0.089 0 0.018 0 0.036 0 0.053s0 0.018 0 0.036v3.36c0 0.089 0 0.124 0.018 0.142 0.018 0 0.053 0 0.107 0h3.591c0.124 0 0.178 0 0.196 0.036 0.036 0.036 0.036 0.089 0.036 0.196v10.293c0 0.018 0 0.036 0 0.053 0 0.053 0 0.089 0.018 0.089 0.018 0.018 0.036 0.018 0.124 0.018h3.431c0.107 0 0.16 0 0.178-0.018 0.036-0.036 0.036-0.089 0.036-0.178v-10.293c0-0.018 0-0.036 0-0.053 0-0.071 0-0.107 0.018-0.124s0.053-0.018 0.124-0.018h3.662c0.142 0 0.142 0 0.142-0.142v-3.324c0-0.036 0-0.053 0-0.071 0-0.071 0.018-0.107 0-0.124s-0.053-0.018-0.124-0.018c-0.018 0-0.036 0-0.071 0z"></path>
            <path fill="#45b288" style="fill: var(--color4, #45b288)"
                d="M28.142 14.062c0.64-1.227 1.671-1.813 2.667-1.831 2.027-0.018 3.342 1.173 3.698 2.791 0.231 0.996 0.124 1.956-0.338 2.844-0.551 1.049-1.422 1.653-2.578 1.796-1.102 0.124-2.080-0.196-2.88-1.031-0.516-0.533-0.818-1.173-0.96-1.902-0.16-0.942-0.053-1.831 0.391-2.667z"></path>
            <path fill="#45b288" style="fill: var(--color4, #45b288)"
                d="M43.858-0.142l12.373 16-12.373 16h-45.369v-32h45.369zM18.56 13.511c0.071 0.053 0.124 0.124 0.196 0.178 0.053-0.036 0.089-0.071 0.107-0.107 0.018-0.018 0.018-0.018 0.018-0.036 0.249-0.302 0.498-0.604 0.747-0.907v0c0.48-0.604 0.978-1.209 1.458-1.813 0.089-0.124 0.089-0.178-0.018-0.284-0.089-0.071-0.178-0.142-0.267-0.231-0.782-0.658-1.636-1.156-2.596-1.458-0.64-0.196-1.298-0.302-1.973-0.356-0.871-0.053-1.742-0.036-2.596 0.178-3.004 0.711-5.262 3.289-5.529 6.578-0.071 0.907 0 1.778 0.231 2.649 0.498 1.956 1.582 3.467 3.307 4.444 0.942 0.551 1.973 0.836 3.040 0.907 0.907 0.089 1.813 0.036 2.702-0.178 1.493-0.356 2.827-1.049 4-2.062 0.089-0.089 0.142-0.16 0.142-0.284-0.018-1.582-0.018-3.147-0.018-4.729v-1.173c0-0.018 0-0.036 0-0.071s0-0.089 0.018-0.124c0-0.053-0.018-0.089-0.053-0.107-0.018-0.018-0.036-0.036-0.036-0.071 0.018-0.053-0.018-0.071-0.071-0.071h-6.329c-0.018 0-0.018 0-0.036 0-0.036 0-0.053 0-0.071 0-0.071 0-0.089 0.036-0.089 0.089 0 0.036 0 0.053 0 0.071s0 0.036 0 0.036c0 0.356 0 0.693 0 1.049 0 0.676 0 1.369 0 2.062 0 0.036 0 0.053 0 0.071 0 0.071 0 0.107 0.018 0.124s0.053 0.018 0.124 0.018c0.018 0 0.036 0 0.053 0h2.507c0.018 0 0.036 0 0.053 0 0.071-0.018 0.107-0.018 0.124 0s0.018 0.053 0.018 0.124c0 0.018 0 0.036 0 0.071 0 0.142 0 0.302 0 0.444 0 0.071 0 0.16 0 0.231v0c0 0.32 0 0.32-0.267 0.444-0.8 0.391-1.636 0.498-2.489 0.391-0.96-0.124-1.724-0.587-2.293-1.404-0.356-0.516-0.569-1.12-0.64-1.76-0.089-0.818 0-1.6 0.373-2.347 0.427-0.889 1.084-1.529 2.027-1.831 0.658-0.196 1.316-0.142 1.973 0 0.604 0.142 1.12 0.444 1.6 0.818 0.178 0.142 0.356 0.284 0.533 0.427zM36.284 10.524c-1.476-1.387-3.236-2.044-5.049-2.062-0.836 0-1.476 0.071-2.133 0.267-1.938 0.516-3.449 1.636-4.444 3.413-1.031 1.831-1.244 3.787-0.676 5.813 0.658 2.258 2.027 3.893 4.16 4.818 1.636 0.693 3.324 0.782 5.031 0.32 1.973-0.533 3.502-1.724 4.498-3.573 0.836-1.564 1.067-3.236 0.747-4.996-0.284-1.564-0.978-2.916-2.133-4z"></path>
        </symbol>
        <symbol id="icon-goit-hover" viewBox="0 0 108 32">
            <path fill="#f76a00" style="fill: var(--color5, #f76a00)"
                d="M106.699-0.683v32.213h-47.253v-32.213h47.253zM74.368 8.192v14.016c0 0.011 0 0.032 0 0.043 0 0.032 0 0.064 0 0.085 0 0.085 0.021 0.139 0.107 0.117 0.021 0 0.043 0 0.064 0h0.021c0 0 0.011 0 0.021 0 0.384 0 0.779 0 1.173 0v0c0.779 0 1.568 0 2.347 0 0.021 0 0.043 0 0.064 0 0.075 0 0.117 0 0.128-0.011 0.021-0.021 0.021-0.053 0.021-0.117 0-0.021 0-0.053 0-0.085v-14.027c0-0.021 0-0.032-0.011-0.043 0-0.021 0-0.043 0.011-0.064 0-0.085-0.021-0.117-0.117-0.107-0.011 0-0.032 0-0.053 0-0.011 0-0.011 0-0.021 0-0.395 0-0.789-0.011-1.195-0.011-0.789 0-1.579 0-2.368 0.011-0.021 0-0.043-0.011-0.064-0.011-0.064 0-0.096 0-0.107 0.021-0.021 0.011-0.021 0.043-0.021 0.117 0 0.011 0 0.043 0 0.064zM93.995 8h-5.877c-1.952 0-3.915 0-5.877-0.011-0.011 0-0.021 0-0.043 0s-0.053 0.011-0.085 0-0.085 0.032-0.085 0.096c0 0.011 0 0.032 0 0.053 0 0.011 0 0.021 0 0.032v3.381c0 0.075 0 0.107 0.021 0.128 0.011 0.021 0.043 0.021 0.117 0.021h3.733c0.117 0 0.181 0 0.213 0.021 0.021 0.032 0.021 0.096 0.021 0.203v10.357c0 0.021 0 0.032 0 0.053 0 0.053 0 0.085 0.021 0.107 0.011 0.011 0.053 0.011 0.128 0.011h3.573c0.117 0 0.171 0 0.192-0.021 0.032-0.032 0.032-0.085 0.032-0.192v-10.347c0-0.021 0-0.043 0-0.064 0-0.064 0-0.096 0.011-0.117 0.021-0.011 0.053-0.011 0.139-0.011h3.808c0.16 0 0.16 0 0.16-0.16v-3.349c0-0.021 0-0.032 0-0.053 0-0.075 0-0.107-0.011-0.128-0.021-0.021-0.053-0.021-0.128-0.011-0.021 0-0.043 0-0.064 0z"></path>
            <path fill="#000" style="fill: var(--color6, #000)"
                d="M30.187 13.621c0.672-1.237 1.739-1.824 2.773-1.845 2.112-0.011 3.488 1.184 3.872 2.827 0.224 0.981 0.117 1.952-0.363 2.848-0.576 1.056-1.472 1.675-2.677 1.813-1.163 0.128-2.176-0.203-3.008-1.035-0.533-0.533-0.853-1.195-0.992-1.931-0.171-0.928-0.064-1.835 0.395-2.677z"></path>
            <path fill="#000" style="fill: var(--color6, #000)"
                d="M46.571-0.683l12.875 16.107-12.875 16.107h-47.253v-32.213h47.253zM20.213 13.067c0.064 0.064 0.139 0.117 0.213 0.181 0.053-0.032 0.075-0.075 0.107-0.107 0.011-0.011 0.011-0.021 0.021-0.032 0.256-0.299 0.512-0.608 0.768-0.907v-0.011c0.501-0.608 1.013-1.216 1.525-1.824 0.096-0.128 0.096-0.181-0.021-0.277-0.085-0.085-0.181-0.16-0.277-0.235-0.811-0.661-1.696-1.184-2.699-1.483-0.672-0.192-1.365-0.309-2.059-0.352-0.917-0.064-1.813-0.032-2.709 0.171-3.136 0.725-5.472 3.317-5.749 6.645-0.064 0.896 0 1.781 0.235 2.656 0.512 1.973 1.653 3.477 3.456 4.469 0.981 0.544 2.037 0.832 3.157 0.928 0.949 0.075 1.877 0.011 2.805-0.192 1.568-0.352 2.944-1.067 4.171-2.080 0.107-0.085 0.139-0.171 0.139-0.299 0-1.579 0-3.157 0-4.747v-1.184c0-0.021 0-0.043 0-0.064-0.011-0.043-0.011-0.096 0-0.128 0.021-0.053-0.011-0.085-0.032-0.107s-0.043-0.043-0.043-0.075c0.011-0.064-0.032-0.064-0.075-0.064h-6.592c-0.021 0-0.032 0-0.043 0-0.021 0-0.053 0-0.075 0-0.075-0.011-0.096 0.021-0.085 0.085 0 0.021 0 0.053 0 0.075 0 0.011 0 0.021 0 0.043 0 0.341 0 0.693 0 1.035 0 0.704 0 1.397 0 2.091 0 0.021 0 0.053 0 0.075 0 0.064 0 0.096 0.011 0.107 0.021 0.021 0.053 0.021 0.128 0.021 0.021 0 0.043 0 0.064 0h2.603c0.032 0 0.043 0 0.064 0 0.075 0 0.107 0 0.128 0.011 0.011 0.021 0.011 0.053 0.011 0.117 0 0.021 0 0.043 0 0.075 0 0.149 0 0.299 0 0.448 0 0.075 0 0.16 0 0.235v0c0 0.309 0 0.309-0.277 0.448-0.821 0.395-1.696 0.501-2.592 0.395-1.003-0.128-1.792-0.597-2.379-1.408-0.384-0.533-0.587-1.131-0.672-1.781-0.096-0.821 0-1.611 0.384-2.357 0.448-0.896 1.131-1.547 2.101-1.845 0.693-0.203 1.387-0.149 2.069 0 0.629 0.139 1.173 0.437 1.675 0.821 0.181 0.139 0.363 0.288 0.544 0.427zM38.677 10.069c-1.536-1.397-3.371-2.059-5.259-2.080-0.875 0-1.536 0.075-2.229 0.256-2.005 0.523-3.584 1.643-4.629 3.445-1.077 1.845-1.291 3.819-0.693 5.845 0.672 2.272 2.101 3.925 4.32 4.853 1.696 0.704 3.467 0.8 5.237 0.331 2.069-0.544 3.648-1.739 4.693-3.605 0.875-1.568 1.109-3.253 0.779-5.013-0.288-1.589-1.024-2.944-2.219-4.032z"></path>
        </symbol>
        <symbol id="icon-lifebar" viewBox="0 0 32 32">
            <path fill="#014631" style="fill: var(--color2, #014631)"
                d="M1.424 22.464v7.136h29.136v-7.136h-29.136zM2.56 23.6h26.864v4.864h-8.56v-3.744h-18.304v-1.12z"></path>
            <path fill="none" stroke="#014631" style="stroke: var(--color2, #014631)"
                stroke-linejoin="miter" stroke-linecap="butt" stroke-miterlimit="4"
                stroke-width="2.4"
                d="M4.992 6.112c0.096 2.944 2.144 4.96 4.688 7.168 2.208 1.92 4.752 3.952 6.304 6.88 0-0.016 0-0.016 0.016-0.016 0 0 0 0 0 0.016 1.552-2.928 4.096-4.96 6.304-6.88 2.544-2.208 4.592-4.224 4.688-7.168 0.016-1.92-1.744-5.408-4.96-5.44-2.384-0.032-5.168 1.6-6.032 4.224-0.88-2.624-3.664-4.256-6.048-4.224-3.216 0.032-4.976 3.52-4.96 5.44z"></path>
        </symbol>
        <symbol id="icon-news" viewBox="0 0 32 32">
            <path
                d="M6.663 27.314c-0.731 0-1.36-0.263-1.886-0.789s-0.777-1.154-0.777-1.886v-18.663c0-0.731 0.251-1.36 0.777-1.886s1.154-0.777 1.886-0.777h14.663l6.674 6.663v14.663c0 0.731-0.263 1.36-0.789 1.886s-1.154 0.789-1.886 0.789h-18.663zM9.326 21.977h13.337v-2.663h-13.337v2.663zM9.326 16.64h13.337v-2.663h-13.337v2.663zM20 11.314h5.326l-5.326-5.337v5.337zM9.326 11.314h6.674v-2.674h-6.674v2.674z"></path>
        </symbol>
        <symbol id="icon-plant" viewBox="0 0 32 32">
            <path
                d="M31.952 4.816c-0.016-0.24-0.128-0.48-0.304-0.64-0.176-0.176-0.416-0.288-0.656-0.304-6.56-0.368-11.824 1.6-14.080 5.28-1.504 2.448-1.504 5.392-0.032 8.224-0.832 0.976-1.44 2.128-1.792 3.376l-2.064-2.048c0.992-2.032 0.96-4.16-0.112-5.936-1.68-2.72-5.536-4.176-10.336-3.904-0.24 0.016-0.48 0.112-0.656 0.288s-0.272 0.416-0.288 0.656c-0.288 4.72 1.184 8.528 3.952 10.192 0.912 0.544 1.952 0.832 3.024 0.832 1.040-0.016 2.064-0.256 2.992-0.704l3.168 3.12v3.584c0 0.272 0.096 0.512 0.288 0.704s0.448 0.304 0.72 0.304c0.272 0 0.528-0.112 0.72-0.304s0.288-0.432 0.288-0.704v-3.68c0-1.6 0.544-3.136 1.568-4.384 1.296 0.672 2.736 1.040 4.208 1.056 1.424 0 2.816-0.384 4.032-1.104 3.744-2.24 5.744-7.424 5.36-13.904zM6.624 18.288c-1.936-1.168-3.040-3.92-3.008-7.456 3.584-0.032 6.368 1.056 7.552 2.976 0.608 0.992 0.704 2.16 0.304 3.376l-3.088-3.056c-0.192-0.176-0.448-0.288-0.704-0.272-0.272 0-0.528 0.096-0.704 0.288-0.192 0.176-0.304 0.432-0.304 0.688 0 0.272 0.096 0.512 0.272 0.704l3.104 3.056c-1.216 0.4-2.4 0.304-3.424-0.304zM25.552 17.008c-1.696 1.008-3.696 1.088-5.728 0.24l6.8-6.704c0.192-0.192 0.288-0.448 0.288-0.704s-0.112-0.512-0.304-0.688c-0.192-0.192-0.432-0.288-0.704-0.304-0.256 0-0.512 0.096-0.704 0.288l-6.8 6.704c-0.864-2-0.784-3.984 0.24-5.648 1.776-2.88 5.952-4.48 11.328-4.352 0.112 5.28-1.504 9.424-4.416 11.168z"></path>
        </symbol>
        <symbol id="icon-repair" viewBox="0 0 32 32">
            <path
                d="M29.264 3.248c0.256 0.448 0.48 0.864 0.688 1.264s0.384 0.816 0.56 1.216c0.16 0.416 0.288 0.832 0.352 1.28 0.064 0.432 0.112 0.928 0.128 1.456 0 0.784-0.096 1.52-0.288 2.24-0.192 0.704-0.48 1.376-0.848 2.016-0.384 0.64-0.816 1.2-1.344 1.712-0.512 0.512-1.088 0.944-1.712 1.312-0.624 0.384-1.296 0.656-2 0.864-0.72 0.192-1.472 0.288-2.24 0.304-0.224 0-0.448-0.016-0.688-0.032-0.224-0.016-0.448-0.048-0.672-0.080l-11.808 11.792c-0.48 0.48-1.008 0.832-1.6 1.072s-1.232 0.368-1.888 0.368c-0.672 0-1.312-0.128-1.904-0.384-0.608-0.256-1.12-0.608-1.552-1.056-0.448-0.448-0.8-0.96-1.056-1.568-0.272-0.592-0.4-1.232-0.4-1.904 0-0.656 0.128-1.28 0.368-1.872s0.592-1.136 1.072-1.616l11.808-11.792c-0.048-0.24-0.080-0.464-0.096-0.688s-0.032-0.448-0.032-0.688c0-0.768 0.096-1.504 0.304-2.224 0.192-0.704 0.48-1.376 0.848-2.016s0.816-1.2 1.328-1.712c0.512-0.512 1.088-0.944 1.712-1.328 0.624-0.368 1.296-0.656 2.016-0.848 0.704-0.192 1.456-0.288 2.24-0.304 0.528 0 1.008 0.048 1.44 0.112 0.448 0.080 0.88 0.208 1.296 0.368 0.416 0.176 0.832 0.352 1.216 0.544s0.816 0.432 1.264 0.704l-5.776 5.776 1.488 1.488 5.776-5.776zM22.56 15.040c0.896 0 1.744-0.176 2.544-0.512 0.784-0.352 1.488-0.816 2.080-1.408 0.592-0.608 1.072-1.296 1.408-2.080 0.336-0.8 0.512-1.648 0.528-2.576 0-0.704-0.128-1.392-0.352-2.064l-5.28 5.264-4.128-4.128 5.264-5.28c-0.672-0.24-1.36-0.352-2.064-0.352-0.912 0-1.76 0.176-2.56 0.512-0.784 0.352-1.472 0.816-2.080 1.408-0.592 0.592-1.056 1.296-1.392 2.080-0.352 0.8-0.528 1.648-0.528 2.56 0 0.352 0.016 0.688 0.080 1.008s0.128 0.64 0.208 0.96l-12.528 12.544c-0.288 0.272-0.496 0.608-0.656 0.976s-0.24 0.768-0.24 1.168c0 0.416 0.080 0.8 0.24 1.184 0.16 0.368 0.368 0.688 0.656 0.96s0.608 0.48 0.96 0.64c0.368 0.16 0.752 0.24 1.184 0.256 0.4 0 0.8-0.080 1.168-0.24s0.704-0.368 0.976-0.656l12.544-12.528c0.32 0.080 0.64 0.144 0.96 0.208s0.656 0.096 1.008 0.096z"></path>
        </symbol>
        <symbol id="icon-service" viewBox="0 0 37 32">
            <path
                d="M5.493 4.653c1.733-1.707 4.053-2.693 6.493-2.787s4.827 0.733 6.68 2.307c1.84-1.573 4.227-2.387 6.667-2.307 2.44 0.093 4.76 1.080 6.48 2.773 1.733 1.693 2.747 3.973 2.84 6.373s-0.733 4.747-2.32 6.573l-11.56 11.413c-0.533 0.52-1.253 0.827-2 0.853-0.76 0.027-1.48-0.213-2.053-0.707l-0.173-0.147-11.56-11.413c-1.587-1.827-2.413-4.173-2.32-6.56 0.093-2.4 1.107-4.68 2.827-6.373zM7.6 6.72c-1.213 1.2-1.92 2.813-1.96 4.507s0.587 3.347 1.747 4.6l0.213 0.227 11.067 10.88 7.893-7.773-5.267-5.187-1.573 1.56c-0.84 0.827-1.973 1.28-3.16 1.28s-2.333-0.453-3.16-1.28c-0.84-0.827-1.307-1.947-1.307-3.107 0-1.173 0.467-2.293 1.307-3.107l3.12-3.093c-1.24-0.973-2.8-1.48-4.4-1.427-1.587 0.040-3.107 0.653-4.293 1.707l-0.227 0.213zM20.24 10.867c0.28-0.28 0.653-0.427 1.053-0.427s0.773 0.147 1.053 0.427l6.32 6.213 1.053-1.027c1.24-1.227 1.947-2.867 1.96-4.587 0.027-1.72-0.64-3.387-1.853-4.64-1.2-1.24-2.853-1.973-4.613-2.027-1.747-0.067-3.453 0.547-4.747 1.707l-0.227 0.213-4.733 4.667c-0.267 0.253-0.413 0.587-0.44 0.947s0.093 0.72 0.32 1l0.12 0.12c0.253 0.253 0.6 0.413 0.96 0.427 0.36 0.027 0.72-0.080 1.013-0.307l0.133-0.12 2.627-2.587z"></path>
        </symbol>
        <symbol id="icon-simplethankyou" viewBox="0 0 32 32">
            <path
                d="M3.66 9.27c-3.99 7.72 11.25 16.44 12.34 16.44 1.19 0 16.32-8.72 12.33-16.44-1.75-2.98-6.33-7.71-12.33 0-3.59-5.21-9.16-5.62-12.34 0z"></path>
            <path stroke-linejoin="round" stroke-linecap="butt" stroke-miterlimit="4"
                stroke-width="2"
                d="M16 25.71c1.19 0 16.32-8.72 12.33-16.44-1.75-2.98-6.33-7.71-12.33 0-3.59-5.21-9.16-5.62-12.34 0-3.99 7.72 11.25 16.44 12.34 16.44z"></path>
        </symbol>
        <symbol id="icon-tracks" viewBox="0 0 32 32">
            <path
                d="M26.663 20.011l-4.011 3.771v-2.297h-3.52c-1.006 0-2.823-0.583-3.577-2.766l-1.006-2.583-1.006-2.709c-0.183-0.651-0.491-0.709-0.617-0.766h-7.6v-2.937h7.657c1.006 0 2.823 0.583 3.577 2.766l1.006 2.583 1.006 2.709c0.183 0.64 0.503 0.709 0.629 0.766h3.451v-2.297l4.011 3.76z"></path>
            <path
                d="M13.737 17.314l-0.126 0.4c-0.183 0.651-0.503 0.709-0.629 0.766h-7.657v2.949h7.657c0.56 0 1.44-0.183 2.194-0.823-0.309-0.469-0.629-0.949-0.811-1.589l-0.629-1.703zM18.377 13.783l0.194-0.469c0.183-0.651 0.503-0.709 0.629-0.766h3.451v2.286l4.011-3.76-4.011-3.76v2.286h-3.52c-0.56 0-1.509 0.24-2.263 0.823 0.377 0.48 0.629 1.006 0.88 1.657l0.629 1.703z"></path>
        </symbol>
    </defs>
</svg>
    